<svg xmlns="http://www.w3.org/2000/svg" xmlns:xlink="http://www.w3.org/1999/xlink" version="1.1" id="Layer_1" x="0px" y="0px" viewBox="0 0 537.677 53.96" enable-background="new 0 0 537.677 53.96" xml:space="preserve">
<g>
	<path fill="#383433" d="M27.953 27.143L14.422 44.259h54.125V10.028H14.422L27.953 27.143z M61.853 32.957H47.572 c-0.419 0-0.76-0.341-0.76-0.761c0-0.421 0.341-0.76 0.76-0.76h14.282c0.419 0 0.8 0.3 0.8 0.8 C62.615 32.6 62.3 33 61.9 32.957z M47.572 22.867h14.282c0.419 0 0.8 0.3 0.8 0.761s-0.342 0.761-0.761 0.8 H47.572c-0.419 0-0.76-0.341-0.76-0.761S47.153 22.9 47.6 22.867z M43.286 27.151h18.568c0.419 0 0.8 0.3 0.8 0.8 c0 0.422-0.342 0.76-0.761 0.76H43.286c-0.419 0-0.76-0.338-0.76-0.76C42.526 27.5 42.9 27.2 43.3 27.151z"/>
	<path fill="#383433" d="M522.516 10.028h-54.127v34.231h54.127l-13.532-17.117L522.516 10.028z M475.824 22.867h14.282 c0.42 0 0.8 0.3 0.8 0.761c0 0.42-0.339 0.761-0.76 0.761h-14.282c-0.42 0-0.76-0.341-0.76-0.761 C475.064 23.2 475.4 22.9 475.8 22.867z M490.106 32.957h-14.282c-0.42 0-0.76-0.342-0.76-0.761 c0-0.422 0.339-0.76 0.76-0.76h14.282c0.42 0 0.8 0.3 0.8 0.76C490.865 32.6 490.5 33 490.1 32.957z M494.391 28.7 h-18.568c-0.42 0-0.76-0.338-0.76-0.761c0-0.42 0.339-0.76 0.76-0.76h18.568c0.418 0 0.8 0.3 0.8 0.8 C495.151 28.3 494.8 28.7 494.4 28.671z"/>
	<circle fill-rule="evenodd" clip-rule="evenodd" fill="#383433" cx="2.4" cy="27.5" r="2.4"/>
	<circle fill-rule="evenodd" clip-rule="evenodd" fill="#383433" cx="535.3" cy="27.5" r="2.4"/>
	<g>
		<path fill="#383433" d="M74.345 46.615l3.897-3.972c0.824-0.749 1.574-0.599 2.2 0.075c0.974 1 2.5 2.4 4.9 2.4 c2.923 0 5.996-2.398 5.996-7.57V2.173c0-0.749 0.599-1.424 1.424-1.424h7.045c0.824 0 1.4 0.7 1.4 1.424v35.374 c0 10.417-6.97 16.413-15.739 16.413c-6.52 0-10.117-3.897-11.391-5.471C73.82 47.9 73.9 47.1 74.3 46.615z"/>
		<path fill="#383433" d="M106.722 51.262L130.03 0.824C130.255 0.4 130.6 0 131.3 0h0.75c0.749 0 1 0.4 1.3 0.8 l23.083 50.438c0.45 0.974-0.15 1.949-1.274 1.949h-6.52c-1.124 0-1.649-0.45-2.173-1.499l-3.672-8.094h-22.409l-3.672 8.1 c-0.3 0.75-0.974 1.499-2.174 1.499h-6.52C106.872 53.2 106.3 52.2 106.7 51.262z M139.098 35.299l-7.494-16.488h-0.225 l-7.345 16.488H139.098z"/>
		<path fill="#383433" d="M186.092 0c7.57 0 13 2.4 18.1 6.97c0.674 0.6 0.7 1.5 0.1 2.098l-4.571 4.7 c-0.525 0.599-1.274 0.599-1.874 0c-3.148-2.773-7.345-4.422-11.541-4.422c-9.593 0-16.713 8.019-16.713 17.5 c0 9.4 7.2 17.3 16.8 17.312c4.497 0 8.319-1.724 11.466-4.272c0.6-0.524 1.424-0.45 1.9 0l4.647 4.8 c0.599 0.5 0.5 1.499-0.075 2.024c-5.096 4.946-11.542 7.269-18.212 7.269c-14.989 0-27.055-11.916-27.055-26.905 C159.037 12.1 171.1 0 186.1 0z"/>
		<path fill="#383433" d="M214.123 2.548c0-0.974 0.75-1.799 1.799-1.799h6.595c0.974 0 1.8 0.8 1.8 1.799v20.235 l18.886-21.284c0.3-0.374 0.75-0.749 1.424-0.749h7.494c1.424 0 2.2 1.6 1.2 2.698l-19.56 22.034l20.984 25.1 c0.75 1 0.1 2.623-1.349 2.623h-8.169c-0.749 0-1.199-0.3-1.349-0.525l-19.56-24.132v22.858c0 0.974-0.824 1.799-1.799 1.8 h-6.595c-1.049 0-1.799-0.824-1.799-1.799V2.548z"/>
		<path fill="#383433" d="M279.777 1.349c0-0.749 0.675-1.349 1.424-1.349h1.874l31.177 33.126h0.074V2.173 c0-0.749 0.599-1.424 1.424-1.424h6.895c0.75 0 1.4 0.7 1.4 1.424v50.438c0 0.749-0.675 1.349-1.424 1.349h-1.798 l-31.328-34.4h-0.074v32.226c0 0.749-0.599 1.424-1.424 1.424h-6.821c-0.749 0-1.424-0.675-1.424-1.424V1.349z"/>
		<path fill="#383433" d="M347.755 27.954L330.668 2.923c-0.599-0.974 0-2.174 1.199-2.174h7.644c0.599 0 1 0.4 1.2 0.7 l11.991 17.237l11.991-17.237c0.225-0.3 0.599-0.675 1.2-0.675h7.719c1.2 0 1.8 1.2 1.2 2.174l-17.312 24.956v23.908 c0 0.749-0.675 1.424-1.424 1.424h-6.895c-0.825 0-1.424-0.675-1.424-1.424V27.954z"/>
		<path fill="#383433" d="M403.667 0c7.569 0 13 2.4 18.1 6.97c0.675 0.6 0.7 1.5 0.1 2.098l-4.572 4.7 c-0.524 0.599-1.274 0.599-1.874 0c-3.148-2.773-7.345-4.422-11.542-4.422c-9.593 0-16.712 8.019-16.712 17.5 c0 9.4 7.2 17.3 16.8 17.312c4.497 0 8.319-1.724 11.466-4.272c0.599-0.524 1.424-0.45 1.9 0l4.647 4.8 c0.599 0.5 0.4 1.499-0.075 2.024c-5.096 4.946-11.542 7.269-18.212 7.269c-14.989 0-27.055-11.916-27.055-26.905 C376.612 12.1 388.7 0 403.7 0z"/>
		<path fill="#383433" d="M426.751 50.438l22.333-40.32v-0.3h-18.736c-0.75 0-1.424-0.674-1.424-1.424v-6.22 c0-0.749 0.675-1.424 1.424-1.424h31.327c0.75 0 1.4 0.7 1.4 1.424v0.974l-22.034 40.845v0.15h19.111 c0.824 0 1.4 0.7 1.4 1.424v6.22c0 0.749-0.599 1.424-1.424 1.424h-32.001c-0.75 0-1.424-0.675-1.424-1.424V50.438z"/>
	</g>
</g>
</svg>
